<svg id="Layer_1" data-name="Layer 1" xmlns="http://www.w3.org/2000/svg" viewBox="0 0 1167.84 183.3"><defs><style>.cls-1{fill:#56d395;}</style></defs><title>ac_green</title><path class="cls-1" d="M491.2,649.41c-3.93,1.82-6.21,4.84-5.39,7,.27.73-.09,1.28-.73,1.28-1.74,0-2.1,4-3.38,33-2.1,46.75,2.11,90.13,9.86,100.18a21.76,21.76,0,0,0,5.21,4.84c2.74,1.64,7.58,1.73,208.31,1.73,135.61,0,206.57-.36,208.76-.91,4.75-1.37,10.42-7.76,12.15-13.88,6-21.1,9.23-67.22,7-99.63-1.28-18.27-2.74-25.12-6.21-29.68-4.66-6.12,12.51-5.67-220.09-5.67C501,647.67,494.94,647.76,491.2,649.41Zm428.05,6.28c5.21,2.83,6.67,14.8,6.67,52.51,0,29.68-.91,41.28-5,63.29-2.1,10.87-4.11,15.25-8.13,17.26-1.37.73-5.85,1.19-10.87,1.19-8.41,0-8.5,0-7.86-2.1,2.37-7.59,3.2-11.78,3.2-16.35v-5.3H517.18v4.29c0,4.21,1.92,14.52,3.2,17.81.64,1.55-.19,1.64-9.59,1.64-10,0-10.23-.09-12.7-2.55-4.93-4.84-8.68-28.22-9.78-59.91-.63-18.81.92-61.19,2.47-66a12,12,0,0,1,3.29-4.83c2.38-1.83,3.2-1.83,212.86-1.83C849.55,654.78,918.07,655.05,919.25,655.69ZM889.56,777.92a44.46,44.46,0,0,1-2.56,7.67l-2,4.15H528.83l-1.46-4.61a67.89,67.89,0,0,1-2-7.67l-.55-3H890.2Z" transform="translate(-116.96 -633.96)"/><path class="cls-1" d="M492.42,731.93a10.54,10.54,0,0,0-.19,4l.27,2.59H923.56V731.1l-215.34-.28C523.1,730.63,492.87,730.82,492.42,731.93Z" transform="translate(-116.96 -633.96)"/><path class="cls-1" d="M669.74,741.83c-6.12,2.28-5.85,16.8.37,19,1.82.64,15.25,1,37.71,1s35.89-.37,37.71-1c3-1,4.75-4.47,4.75-9.5s-1.73-8.49-4.75-9.5C741.89,740.55,673.21,740.55,669.74,741.83Zm72.33,9.59v2.3H673.73v-4.61h68.34Z" transform="translate(-116.96 -633.96)"/><path class="cls-1" d="M117,767.4h32.9V663.64H117V649.3h82.76v14.34h-32.9V767.4h32.9v14.33H117Z" transform="translate(-116.96 -633.96)"/><path class="cls-1" d="M239.69,684.63l28.47-1h57.13v13.53h-85.6Zm28.06-9.28c0-23.82,12.52-39.77,39.57-39.77a72.7,72.7,0,0,1,28.26,5.65l-3.83,12.52a53,53,0,0,0-22.81-4.65c-17.57,0-24.63,9.9-24.63,25.64v107H267.75Z" transform="translate(-116.96 -633.96)"/><path class="cls-1" d="M382,725.61c0-39,17.15-69.84,45.22-91.65l9.28,8.48c-27,22.81-39.57,49.26-39.57,83.17s12.52,60.36,39.57,83.18l-9.28,8.47C399.17,795.46,382,764.58,382,725.61Z" transform="translate(-116.96 -633.96)"/><path class="cls-1" d="M970.28,808.79c27.05-22.82,39.56-49.26,39.56-83.18s-12.51-60.36-39.56-83.17l9.28-8.48c28.06,21.81,45.22,52.69,45.22,91.65s-17.16,69.85-45.22,91.65Z" transform="translate(-116.96 -633.96)"/><path class="cls-1" d="M1118.25,785.57c0-14.74,2-25.44,2-39,0-7.87-5.45-15.55-29.27-15.75V720.37c23.82-.21,29.27-7.88,29.27-15.75,0-12.72-2-25-2-39,0-20.8,12.11-26.85,37.35-26.85h12.51v9.49h-10.5c-20.59,0-25,5.24-25,18.37,0,11.5,1.21,24,1.21,36.54,0,13.12-4.44,19.58-18.37,22V726c13.93,2.42,18.37,8.88,18.37,22,0,13.73-1.21,24.23-1.21,36.54,0,13.12,4.44,18.37,25,18.37h10.5v9.49H1155.6C1130.36,812.42,1118.25,806.36,1118.25,785.57Z" transform="translate(-116.96 -633.96)"/><path class="cls-1" d="M1207.88,802.93h10.3c20.59,0,25.23-5.25,25.23-18.37,0-12.31-1.21-22.81-1.21-36.54,0-13.12,4.24-19.58,18.17-22v-.81c-13.93-2.42-18.17-8.88-18.17-22,0-12.52,1.21-25,1.21-36.54,0-13.13-4.64-18.37-25.23-18.37h-10.3v-9.49h12.32c25.43,0,37.14,6.05,37.14,26.85,0,13.93-1.82,26.24-1.82,39,0,7.87,5.45,15.54,29.27,15.75v10.49c-23.82.2-29.27,7.88-29.27,15.75,0,13.52,1.82,24.22,1.82,39,0,20.79-11.71,26.85-37.14,26.85h-12.32Z" transform="translate(-116.96 -633.96)"/></svg>